<?xml version="1.0" encoding="UTF-8"?>
<svg id="_图层_1" data-name="图层 1" xmlns="http://www.w3.org/2000/svg" viewBox="0 0 1196 196">
  <defs>
    <style>
      .cls-1 {
        stroke-width: 0px;
      }
    </style>
  </defs>
  <g>
    <g>
      <polygon class="cls-1" points="421.7 126.19 416.89 133.32 435.09 140.65 438.7 134.94 421.7 126.19"/>
      <polygon class="cls-1" points="423.22 147.62 439.75 155.74 436.45 160.99 418.92 154.41 423.22 147.62"/>
      <polygon class="cls-1" points="437.07 168.72 429.99 190.9 440.23 195.05 443.81 171.89 437.07 168.72"/>
      <polygon class="cls-1" points="439.74 143.16 469.39 143.16 467.79 134.61 437.6 134.61 439.74 143.16"/>
      <polygon class="cls-1" points="454.33 148.09 465.17 195.53 472.35 195.53 463.87 148.09 454.33 148.09"/>
      <polygon class="cls-1" points="443.03 125.61 445.73 144.72 441.92 160.77 446.48 167.82 473.64 166.72 472.13 158.66 450.4 160.42 453.6 146.3 453.38 126.69 443.03 125.61"/>
      <polygon class="cls-1" points="445.78 176.6 449.77 184.52 476.82 177.13 475.22 172.17 445.78 176.6"/>
      <path class="cls-1" d="m488.83,152.75l8.24,42.86s6.38.07,6.41.02-5.46-43.13-5.46-43.13l-9.19.25Z"/>
      <path class="cls-1" d="m503.01,150.49h-24.81l-.02,7.25s26.01.6,25.93.47-1.09-7.72-1.09-7.72Z"/>
      <polygon class="cls-1" points="492.18 126.36 470.24 132.83 477.11 174.2 476.8 192.42 482.8 196 486.24 179.12 480.85 139.51 499.83 134.61 492.18 126.36"/>
    </g>
    <g>
      <polygon class="cls-1" points="512.69 130.06 596.29 130.06 596.35 137.02 514.62 138.15 512.69 130.06"/>
      <polygon class="cls-1" points="531.91 125.45 534.37 142.21 543.95 142.21 543.16 125.45 531.91 125.45"/>
      <polygon class="cls-1" points="565.39 125.45 567.24 142.45 576.64 142.45 576.55 125.45 565.39 125.45"/>
      <polygon class="cls-1" points="520.68 145.91 524.41 168.34 532.39 168.34 530.8 145.91 520.68 145.91"/>
      <polygon class="cls-1" points="537.14 143.55 540.48 169.87 549.05 169.87 547.84 143.55 537.14 143.55"/>
      <polygon class="cls-1" points="569.81 159.49 578.09 155.68 587.32 167.46 580.12 170.7 569.81 159.49"/>
      <polygon class="cls-1" points="565.64 148.8 592.99 148.64 592.83 156 563.1 156.32 565.64 148.8"/>
      <polygon class="cls-1" points="561.22 142.45 551.95 163.34 559.85 167.6 571.55 144.18 561.22 142.45"/>
      <polygon class="cls-1" points="518.87 187.31 521.23 194.31 597.09 194.31 597.62 187.31 518.87 187.31"/>
      <polygon class="cls-1" points="526.41 171.91 528.89 187.46 536.92 187.46 536.22 171.91 526.41 171.91"/>
      <polygon class="cls-1" points="588.91 171.91 588.31 187.65 579.19 187.55 578.88 178.6 536.35 178.6 535.81 171.91 588.91 171.91"/>
      <polygon class="cls-1" points="544.96 178.4 545.74 187.55 553.3 187.55 553.68 178.4 544.96 178.4"/>
      <polygon class="cls-1" points="561.92 178.4 562.47 187.55 570.05 187.55 570.63 178.4 561.92 178.4"/>
    </g>
    <g>
      <polygon class="cls-1" points="644.22 187.87 646.33 194.49 661.93 194.34 672.41 189.22 681.65 156.58 638.83 156.58 636.58 165.21 669.04 165.26 662.86 184.94 644.22 187.87"/>
      <polygon class="cls-1" points="632.65 146.34 626.37 172.45 608.76 190.09 614.3 195.15 632.68 181.95 644.81 146.34 632.65 146.34"/>
      <polygon class="cls-1" points="609.37 138.05 609.69 146.6 689.51 147.28 691.98 138.05 609.37 138.05"/>
      <polygon class="cls-1" points="647 125.25 646.37 138.32 656.69 138.32 658.85 125.25 647 125.25"/>
    </g>
    <g>
      <polygon class="cls-1" points="713.09 126.61 705.74 172.93 694.29 176.38 697.21 184.87 725.32 172.94 724.58 166.79 714.83 170.01 723.58 126.61 713.09 126.61"/>
      <polygon class="cls-1" points="700.52 144.18 699.24 153.03 728.14 151.42 729.49 144.18 700.52 144.18"/>
      <polygon class="cls-1" points="734.25 138.39 779.11 138.39 771.17 161.3 763.3 161.3 766.68 147.23 732.56 147.23 734.25 138.39"/>
      <polygon class="cls-1" points="727.71 160.92 779.01 160.92 774.41 169.36 726.85 168.89 727.71 160.92"/>
      <polygon class="cls-1" points="730.64 180.49 714.63 190.9 719.02 195.93 741.13 182.67 748.02 173.58 757.01 190.99 764.32 195.93 769.17 191.62 759.92 177.45 756.87 168.84 740.35 168.84 730.64 180.49"/>
      <polygon class="cls-1" points="750.41 126.36 743.69 161.3 752.48 161.3 761.19 126.36 750.41 126.36"/>
    </g>
  </g>
  <g>
    <path class="cls-1" d="m32.61,22.22H0L3.37,1.77h93.88l-2.83,20.45h-32.77l-12.42,84.18h-29.72l13.1-84.18Z"/>
    <path class="cls-1" d="m108.38,1.77h29.36l1.71,47c.27,10.96.54,21.98.78,33.36h.66c3.71-11.38,7.53-22.54,11.31-33.36L170.15,1.77h24.36l7.36,47c1.31,10.68,2.24,21.98,3.5,33.36h.82c2.68-11.38,5.49-22.54,8.09-33.36L227.09,1.77h27.26l-31.29,104.63h-37.36l-5.88-46.25c-1.05-8.02-1.73-16.42-1.98-24.22h-.65c-2.53,7.8-4.97,16.2-7.7,24.22l-16.17,46.25h-36.69L108.38,1.77Z"/>
    <path class="cls-1" d="m252.32,52.84c3.18-33.93,27.19-52.84,59.92-52.84s53.78,19.05,51.66,52.84c-2.17,34.58-26.41,55.59-60.14,55.59s-54.68-21.01-51.45-55.59Zm81.81,0c1.43-20.1-7.63-31.86-23.52-31.86s-26.63,11.76-28.34,31.86c-1.73,20.33,7.05,33.43,23.24,33.43s27.18-13.11,28.63-33.43Z"/>
    <path class="cls-1" d="m381.3,1.77h41.94c24.84,0,44.48,5.74,43.8,25.42-.32,9.16-6.7,19.2-16.63,22.42l-.02.56c12.16,2.81,21.23,10.68,20.77,24.7-.72,21.73-22.46,31.53-49.35,31.53h-46.65l6.15-104.63Zm38.88,40.85c12.4,0,18.14-4.6,18.44-11.69s-5.24-10.37-17.4-10.37h-12l-1.12,22.06h12.07Zm.39,44.08c14.2,0,21.65-4.43,22.02-13.54.35-8.64-6.55-12.17-20.82-12.17h-14.59l-1.3,25.7h14.7Z"/>
    <path class="cls-1" d="m485.34,1.77h28.87l-1.79,83.07h47.87l-.18,21.56h-77.87l3.1-104.63Z"/>
    <path class="cls-1" d="m572.81,56.49l.28-54.72h28.71l.17,57.4c.06,19.97,7.02,27.11,20.56,27.11s20.7-7.13,20.42-27.11l-.82-57.4h27.74l1.21,54.72c.79,35.65-15.47,51.93-48.36,51.93s-50.09-16.28-49.91-51.93Z"/>
    <path class="cls-1" d="m688.74,1.77h76.13l1,20.45h-47.53l.68,19.15h40.61l.98,21.05h-40.85l.8,22.43h50.18l1.06,21.56h-80.19l-2.86-104.63Z"/>
    <path class="cls-1" d="m779.52,53.96c-1.8-34.5,23.95-53.96,54.42-53.96,15.64,0,28.68,6.14,37.48,13.27l-13.88,15.72c-6.52-4.7-13.08-8.02-21.68-8.02-15.57,0-27.66,11.9-26.44,32.14,1.26,20.9,13.23,33.15,30.57,33.15,9.91,0,17.35-4.28,22.72-9.7l16.74,16c-9.62,10.5-23,15.85-39.12,15.85-31.4,0-58.95-18.72-60.81-54.46Z"/>
    <path class="cls-1" d="m885.62,56.49l-4.45-54.72h28.71l5.13,57.4c1.78,19.97,9.36,27.11,22.9,27.11s20.09-7.13,18.08-27.11l-5.78-57.4h27.74l5.93,54.72c3.87,35.65-10.98,51.93-43.87,51.93s-51.49-16.28-54.39-51.93Z"/>
    <path class="cls-1" d="m996.82,1.77h41.94c24.84,0,45.47,5.74,48.19,25.42,1.26,9.16-3.39,19.2-12.76,22.42l.07.56c12.65,2.81,23.07,10.68,25.03,24.7,3.03,21.73-17.02,31.53-43.91,31.53h-46.66l-11.9-104.63Zm45.92,40.85c12.4,0,17.35-4.6,16.42-11.69-.95-7.34-7.02-10.37-19.19-10.37h-12l2.69,22.06h12.07Zm7.99,44.08c14.2,0,20.89-4.43,19.69-13.54-1.14-8.64-8.65-12.17-22.92-12.17h-14.59l3.13,25.7h14.7Z"/>
    <path class="cls-1" d="m1100.86,1.77h76.13l3.36,20.45h-47.53l2.89,19.15h40.61l3.41,21.05h-40.85l3.39,22.43h50.18l3.55,21.56h-80.19l-14.95-104.63Z"/>
  </g>
</svg>