<?xml version="1.0" encoding="UTF-8"?>
<svg id="_图层_5" data-name="图层 5" xmlns="http://www.w3.org/2000/svg" xmlns:xlink="http://www.w3.org/1999/xlink" viewBox="0 0 800 800">
  <defs>
    <style>
      .cls-1 {
        fill: #fff;
      }

      .cls-1, .cls-2 {
        stroke-width: 0px;
      }

      .cls-2 {
        fill: url(#_未命名的渐变_18);
      }
    </style>
    <linearGradient id="_未命名的渐变_18" data-name="未命名的渐变 18" x1="-73.21" y1="127.79" x2="873.21" y2="674.21" gradientUnits="userSpaceOnUse">
      <stop offset="0" stop-color="#0bc2cb"/>
      <stop offset="1" stop-color="#d4d10c"/>
    </linearGradient>
  </defs>
  <rect class="cls-2" y="1" width="800" height="800"/>
  <g>
    <path class="cls-1" d="m222.98,235.06h5.31c15.94,0,26.56,6.28,34.29,20.29l106.74,188.85,37.19,74.86h2.41c-2.9-36.22-7.73-79.21-7.73-117.85v-137.17c0-18.84,9.66-28.98,27.05-28.98s26.56,10.14,26.56,28.98v298c0,18.84-10.14,28.98-28.49,28.98h-5.8c-15.94,0-26.56-6.28-34.29-20.29l-106.74-189.33-37.19-74.38h-1.93c2.41,36.71,6.76,77.76,6.76,116.88v138.13c0,18.84-9.66,28.98-26.56,28.98s-26.56-10.14-26.56-28.98v-298c0-18.84,10.62-28.98,28.98-28.98Z"/>
    <path class="cls-1" d="m571.71,208.98c20.29,0,34.29,13.52,34.29,32.84,0,20.77-14.01,33.81-34.29,33.81s-34.78-13.04-34.78-33.81c0-19.32,14.01-32.84,34.78-32.84Zm0,115.92c17.87,0,27.53,10.14,27.53,28.98v208.17c0,18.84-9.66,28.98-27.53,28.98s-28.01-10.14-28.01-28.98v-208.17c0-18.84,10.14-28.98,28.01-28.98Z"/>
  </g>
</svg>