<?xml version="1.0" encoding="UTF-8"?>
<svg id="_图层_4" data-name="图层 4" xmlns="http://www.w3.org/2000/svg" viewBox="0 0 800 740">
  <defs>
    <style>
      .cls-1 {
        fill: #fff;
        stroke-width: 0px;
      }
    </style>
  </defs>
  <path class="cls-1" d="m56.27,50.52h10.32c30.95,0,51.58,12.16,66.59,39.29l207.27,365.79,72.21,145.01h4.69c-5.63-70.16-15.01-153.43-15.01-228.27V106.65c0-36.48,18.76-56.13,52.52-56.13s51.58,19.65,51.58,56.13v577.22c0,36.49-19.69,56.14-55.33,56.14h-11.26c-30.95,0-51.58-12.16-66.59-39.29l-207.26-366.73-72.22-144.07h-3.75c4.69,71.1,13.13,150.62,13.13,226.4v267.56c0,36.49-18.75,56.14-51.58,56.14S0,720.36,0,683.86V106.65c0-36.48,20.63-56.13,56.27-56.13ZM733.41,0c39.39,0,66.59,26.19,66.59,63.62,0,40.23-27.19,65.48-66.59,65.48s-67.52-25.26-67.52-65.48c0-37.42,27.19-63.62,67.52-63.62Zm0,224.53c34.7,0,53.46,19.64,53.46,56.13v403.21c0,36.49-18.76,56.14-53.46,56.14s-54.4-19.64-54.4-56.14v-403.21c0-36.49,19.69-56.13,54.4-56.13Z"/>
</svg>