<?xml version="1.0" encoding="UTF-8"?>
<svg id="_图层_2" data-name="图层 2" xmlns="http://www.w3.org/2000/svg" xmlns:xlink="http://www.w3.org/1999/xlink" viewBox="0 0 800 800">
  <defs>
    <style>
      .cls-1 {
        fill: #fff;
      }

      .cls-1, .cls-2 {
        stroke-width: 0px;
      }

      .cls-2 {
        fill: url(#_未命名的渐变_18);
      }
    </style>
    <linearGradient id="_未命名的渐变_18" data-name="未命名的渐变 18" x1="21.06" y1="181.22" x2="778.94" y2="618.78" gradientUnits="userSpaceOnUse">
      <stop offset="0" stop-color="#0bc2cb"/>
      <stop offset="1" stop-color="#d4d10c"/>
    </linearGradient>
  </defs>
  <rect class="cls-2" width="800" height="800" rx="297.51" ry="297.51"/>
  <g>
    <path class="cls-1" d="m223.84,235.86h5.29c15.86,0,26.43,6.25,34.13,20.19l106.22,187.93,37.01,74.5h2.4c-2.88-36.05-7.69-78.83-7.69-117.28v-136.5c0-18.74,9.61-28.84,26.92-28.84s26.43,10.09,26.43,28.84v296.56c0,18.75-10.09,28.84-28.36,28.84h-5.77c-15.86,0-26.43-6.25-34.13-20.19l-106.22-188.41-37.01-74.02h-1.92c2.4,36.53,6.73,77.38,6.73,116.31v137.46c0,18.75-9.61,28.84-26.43,28.84s-26.43-10.09-26.43-28.84v-296.56c0-18.74,10.57-28.84,28.84-28.84Z"/>
    <path class="cls-1" d="m570.87,209.91c20.19,0,34.13,13.46,34.13,32.68,0,20.67-13.94,33.64-34.13,33.64s-34.61-12.98-34.61-33.64c0-19.23,13.94-32.68,34.61-32.68Zm0,115.35c17.78,0,27.4,10.09,27.4,28.84v207.16c0,18.75-9.61,28.84-27.4,28.84s-27.88-10.09-27.88-28.84v-207.16c0-18.75,10.09-28.84,27.88-28.84Z"/>
  </g>
</svg>